<?xml version="1.0" encoding="utf-8"?>
<!-- Generator: Adobe Illustrator 21.1.0, SVG Export Plug-In . SVG Version: 6.00 Build 0)  -->
<svg version="1.0" id="Calque_1" xmlns="http://www.w3.org/2000/svg" xmlns:xlink="http://www.w3.org/1999/xlink" x="0px" y="0px"
	 viewBox="0 0 436 435.9" style="enable-background:new 0 0 436 435.9;" xml:space="preserve">
<style type="text/css">
	.st0{fill:#FFFFFF;}
	.st1{opacity:7.000000e-02;}
	.st2{fill:none;stroke:#00A6E0;stroke-width:3;stroke-miterlimit:10;}
	.st3{fill:none;stroke:#FFFFFF;stroke-width:2;stroke-miterlimit:10;}
</style>
<symbol  id="Nouveau_symbole_2" viewBox="-238.7 -238.8 477.3 477.5">
	
		<rect x="8.4" y="-25" transform="matrix(-1 -1.785827e-06 1.785827e-06 -1 22.2557 -22.4023)" class="st0" width="5.5" height="27.6"/>
	
		<rect x="-2.7" y="-25" transform="matrix(-1 -1.785827e-06 1.785827e-06 -1 0.155 -22.4023)" class="st0" width="5.5" height="27.6"/>
	
		<rect x="-13.7" y="-25" transform="matrix(-1 -1.785827e-06 1.785827e-06 -1 -21.9458 -22.4023)" class="st0" width="5.5" height="27.6"/>
	
		<rect x="-2.7" y="19.2" transform="matrix(-1.323198e-06 1 -1 -1.323198e-06 33.0553 32.9002)" class="st0" width="5.5" height="27.6"/>
	
		<rect x="-2.7" y="8.1" transform="matrix(-1.323198e-06 1 -1 -1.323198e-06 22.0049 21.8499)" class="st0" width="5.5" height="27.6"/>
	
		<rect x="-2.7" y="-2.9" transform="matrix(-1.323198e-06 1 -1 -1.323198e-06 10.9545 10.7995)" class="st0" width="5.5" height="27.6"/>
	<rect x="-13.7" y="41.2" class="st0" width="5.5" height="5.5"/>
	<rect x="-13.7" y="52.2" class="st0" width="5.5" height="5.5"/>
	<rect x="-13.7" y="63.2" class="st0" width="5.5" height="5.5"/>
	<rect x="-57.6" y="19.3" class="st0" width="5.5" height="5.5"/>
	<rect x="-68.6" y="19.3" class="st0" width="5.5" height="5.5"/>
	<rect x="-68.7" y="8.3" class="st0" width="27.6" height="5.5"/>
	<rect x="-68.7" y="-2.7" class="st0" width="16.6" height="5.5"/>
	<rect x="-68.7" y="-74" class="st0" width="5.5" height="54.9"/>
	<rect x="-57.6" y="-74" class="st0" width="5.5" height="54.9"/>
	<rect x="-46.7" y="-74" class="st0" width="5.5" height="54.9"/>
	<rect x="-35.6" y="-35.6" class="st0" width="5.5" height="16.5"/>
	<rect x="-24.7" y="-52" class="st0" width="5.5" height="32.9"/>
	<rect x="-24.7" y="-85" class="st0" width="5.5" height="27.4"/>
	<rect x="-35.6" y="-46.6" class="st0" width="5.5" height="5.5"/>
	<rect x="-35.6" y="-57.5" class="st0" width="5.5" height="5.5"/>
	<rect x="-35.6" y="-85" class="st0" width="5.5" height="5.5"/>
	<rect x="-35.6" y="-74" class="st0" width="5.5" height="11"/>
	<rect x="-172.8" y="-85" class="st0" width="131.7" height="5.5"/>
	<rect x="-68.7" y="-13.6" class="st0" width="38.6" height="5.5"/>
	<rect x="-46.7" y="-2.7" class="st0" width="16.6" height="5.5"/>
	<rect x="-57.6" y="30.2" class="st0" width="5.5" height="5.5"/>
	<rect x="-57.6" y="41.2" class="st0" width="5.5" height="5.5"/>
	<rect x="-57.6" y="52.2" class="st0" width="5.5" height="5.5"/>
	<rect x="-57.6" y="63.2" class="st0" width="5.5" height="5.5"/>
	<rect x="-57.6" y="74.1" class="st0" width="5.5" height="5.5"/>
	<rect x="-183.8" y="85.1" class="st0" width="5.5" height="5.5"/>
	<rect x="-183.8" y="96.1" class="st0" width="5.5" height="5.5"/>
	<rect x="-183.8" y="107.1" class="st0" width="5.5" height="5.5"/>
	<rect x="-68.6" y="74.1" class="st0" width="5.5" height="5.5"/>
	<rect x="-57.6" y="129" class="st0" width="5.5" height="11"/>
	<rect x="-68.6" y="129" class="st0" width="5.5" height="11"/>
	<rect x="-68.6" y="30.3" class="st0" width="5.5" height="38.4"/>
	<rect x="-57.6" y="85.1" class="st0" width="5.5" height="16.5"/>
	<rect x="-68.6" y="85.1" class="st0" width="5.5" height="16.5"/>
	<rect x="-57.6" y="107.1" class="st0" width="5.5" height="16.5"/>
	<rect x="-68.6" y="107.1" class="st0" width="5.5" height="16.5"/>
	<rect x="-238.7" y="-238.6" class="st0" width="5.5" height="16.5"/>
	<rect x="-227.7" y="-238.6" class="st0" width="5.5" height="16.5"/>
	<rect x="-238.7" y="-205.7" class="st0" width="5.5" height="16.5"/>
	<rect x="-227.7" y="-205.7" class="st0" width="5.5" height="16.5"/>
	<rect x="-216.7" y="-238.6" class="st0" width="5.5" height="60.3"/>
	<rect x="-238.7" y="-216.6" class="st0" width="5.5" height="5.5"/>
	<rect x="-227.7" y="-216.6" class="st0" width="5.5" height="5.5"/>
	<rect x="-238.7" y="-183.7" class="st0" width="5.5" height="5.5"/>
	<rect x="-227.7" y="-183.7" class="st0" width="5.5" height="5.5"/>
	<rect x="-238.7" y="-172.7" class="st0" width="27.4" height="5.5"/>
	<rect x="-238.7" y="-161.8" class="st0" width="27.4" height="5.5"/>
	<rect x="-238.7" y="-150.8" class="st0" width="27.4" height="5.5"/>
	<rect x="-238.7" y="-128.8" class="st0" width="27.4" height="5.5"/>
	<rect x="-205.8" y="-238.6" class="st0" width="5.5" height="115.2"/>
	<rect x="-238.7" y="-139.8" class="st0" width="16.5" height="5.5"/>
	<rect x="-216.7" y="-139.8" class="st0" width="5.5" height="5.5"/>
	<rect x="-238.6" y="-117.9" class="st0" width="5.5" height="5.5"/>
	<rect x="-227.7" y="-117.9" class="st0" width="5.5" height="5.5"/>
	<rect x="-227.7" y="-106.9" class="st0" width="5.5" height="16.5"/>
	<rect x="-227.7" y="-85" class="st0" width="5.5" height="49.4"/>
	<rect x="-238.6" y="-106.9" class="st0" width="5.5" height="71.3"/>
	<rect x="-238.7" y="-30.1" class="st0" width="16.5" height="5.5"/>
	<rect x="-238.6" y="-19.1" class="st0" width="5.4" height="11"/>
	<rect x="-227.7" y="-19.1" class="st0" width="5.5" height="11"/>
	<rect x="-238.7" y="-2.7" class="st0" width="16.5" height="5.5"/>
	<rect x="-216.7" y="-2.7" class="st0" width="5.5" height="5.5"/>
	<rect x="-205.8" y="-2.7" class="st0" width="5.5" height="5.5"/>
	<rect x="-194.8" y="-8.1" class="st0" width="5.5" height="5.5"/>
	<rect x="-183.8" y="-8.1" class="st0" width="5.5" height="5.5"/>
	<rect x="-172.8" y="-8.1" class="st0" width="11" height="5.5"/>
	
		<rect x="-170.1" y="-65.8" transform="matrix(-2.060280e-07 -1 1 -2.060280e-07 -107.0809 -227.6162)" class="st0" width="5.5" height="11"/>
	
		<rect x="-170.1" y="-54.8" transform="matrix(-2.060284e-07 -1 1 -2.060284e-07 -118.0534 -216.6437)" class="st0" width="5.5" height="11"/>
	
		<rect x="-170.1" y="-43.8" transform="matrix(-2.060290e-07 -1 1 -2.060290e-07 -129.0257 -205.6714)" class="st0" width="5.5" height="11"/>
	
		<rect x="-170.1" y="-32.8" transform="matrix(-2.060284e-07 -1 1 -2.060284e-07 -139.9981 -194.699)" class="st0" width="5.5" height="11"/>
	
		<rect x="-170.1" y="-21.9" transform="matrix(-2.060284e-07 -1 1 -2.060284e-07 -150.9705 -183.7266)" class="st0" width="5.5" height="11"/>
	
		<rect x="-235.9" y="27.5" transform="matrix(-2.060284e-07 -1 1 -2.060284e-07 -266.1804 -200.185)" class="st0" width="5.5" height="11"/>
	
		<rect x="-235.9" y="38.5" transform="matrix(-2.060284e-07 -1 1 -2.060284e-07 -277.1529 -189.2126)" class="st0" width="5.5" height="11"/>
	
		<rect x="-235.9" y="49.5" transform="matrix(-2.060290e-07 -1 1 -2.060290e-07 -288.1252 -178.2402)" class="st0" width="5.5" height="11"/>
	
		<rect x="-235.9" y="60.4" transform="matrix(-2.060284e-07 -1 1 -2.060284e-07 -299.0976 -167.2679)" class="st0" width="5.5" height="11"/>
	
		<rect x="-235.9" y="71.4" transform="matrix(-2.060284e-07 -1 1 -2.060284e-07 -310.0698 -156.2956)" class="st0" width="5.5" height="11"/>
	<rect x="-211.2" y="57.7" class="st0" width="5.5" height="5.5"/>
	
		<rect x="-214" y="33" transform="matrix(-1.028339e-07 -1 1 -1.028339e-07 -244.2059 -172.7831)" class="st0" width="11" height="5.5"/>
	
		<rect x="-211.2" y="46.7" transform="matrix(-2.060287e-07 -1 1 -2.060287e-07 -257.9309 -159.058)" class="st0" width="5.5" height="5.5"/>
	<rect x="-216.7" y="-117.9" class="st0" width="5.5" height="109.7"/>
	<rect x="-205.8" y="-117.9" class="st0" width="5.5" height="109.7"/>
	<rect x="-194.8" y="-117.9" class="st0" width="5.5" height="103.6"/>
	<rect x="-183.8" y="-161.8" class="st0" width="5.5" height="148.1"/>
	<rect x="-194.8" y="2.8" class="st0" width="32.9" height="5.5"/>
	<rect x="-238.6" y="8.2" class="st0" width="38.4" height="5.5"/>
	<rect x="-238.6" y="19.2" class="st0" width="43.8" height="5.5"/>
	
		<rect x="-214" y="71.4" transform="matrix(4.660812e-07 -1 1 4.660812e-07 -282.6079 -134.3801)" class="st0" width="10.9" height="5.5"/>
	
		<rect x="-216.7" y="46.7" transform="matrix(1.323099e-07 -1 1 1.323099e-07 -246.959 -148.086)" class="st0" width="38.4" height="5.5"/>
	
		<rect x="-200.3" y="74.1" transform="matrix(9.306177e-07 -1 1 9.306177e-07 -274.3985 -120.6462)" class="st0" width="5.5" height="5.5"/>
	
		<rect x="-238.6" y="85.1" transform="matrix(-1 2.599292e-07 -2.599292e-07 -1 -427.9413 175.7184)" class="st0" width="49.4" height="5.5"/>
	
		<rect x="-238.6" y="96.1" transform="matrix(-1 2.599292e-07 -2.599292e-07 -1 -427.9413 197.6631)" class="st0" width="49.4" height="5.5"/>
	
		<rect x="-238.6" y="107.1" transform="matrix(-1 2.599292e-07 -2.599292e-07 -1 -427.9413 219.6075)" class="st0" width="49.4" height="5.5"/>
	
		<rect x="-172.8" y="85.1" transform="matrix(-1 3.895080e-07 -3.895080e-07 -1 -312.7264 175.7182)" class="st0" width="32.9" height="5.5"/>
	
		<rect x="-172.8" y="96.1" transform="matrix(-1 3.895080e-07 -3.895080e-07 -1 -312.7264 197.6629)" class="st0" width="32.9" height="5.5"/>
	
		<rect x="-172.8" y="107.1" transform="matrix(-1 4.679655e-07 -4.679655e-07 -1 -318.2481 219.6074)" class="st0" width="27.4" height="5.5"/>
	
		<rect x="-139.9" y="118" transform="matrix(4.677334e-07 1 -1 4.677334e-07 -5.4267 246.9772)" class="st0" width="27.4" height="5.5"/>
	
		<rect x="-115.2" y="104.3" transform="matrix(4.683596e-06 1 -1 4.683596e-06 -2.6824 222.2902)" class="st0" width="5.5" height="11"/>
	
		<rect x="-115.2" y="115.3" transform="matrix(4.683596e-06 1 -1 4.683596e-06 8.2898 233.2623)" class="st0" width="5.5" height="11"/>
	
		<rect x="-115.2" y="126.3" transform="matrix(4.683596e-06 1 -1 4.683596e-06 19.2634 244.2358)" class="st0" width="5.5" height="11"/>
	
		<rect x="-238.6" y="118" transform="matrix(-1 2.127199e-07 -2.127199e-07 -1 -416.988 241.5521)" class="st0" width="60.3" height="5.5"/>
	
		<rect x="-227.7" y="129" transform="matrix(-1 3.341441e-07 -3.341441e-07 -1 -416.9793 263.4973)" class="st0" width="38.4" height="5.5"/>
	
		<rect x="-216.7" y="140" transform="matrix(-1 3.341441e-07 -3.341441e-07 -1 -395.0555 285.4416)" class="st0" width="38.4" height="5.5"/>
	
		<rect x="-238.7" y="129" transform="matrix(-1 3.041793e-05 -3.041793e-05 -1 -471.85 329.3605)" class="st0" width="5.5" height="71.3"/>
	
		<rect x="-227.7" y="161.9" transform="matrix(-1 2.541235e-05 -2.541235e-05 -1 -449.9122 362.1644)" class="st0" width="5.5" height="38.3"/>
	
		<rect x="-216.8" y="172.9" transform="matrix(-1 2.427735e-05 -2.427735e-05 -1 -428.025 373.2459)" class="st0" width="5.5" height="27.5"/>
	
		<rect x="-211.2" y="156.4" transform="matrix(-3.859619e-05 1 -1 -3.859619e-05 -10.9716 329.2422)" class="st0" width="82.2" height="5.5"/>
	
		<rect x="-200.3" y="156.5" transform="matrix(-3.854441e-05 1 -1 -3.854441e-05 5.960006e-02 318.3219)" class="st0" width="82.3" height="5.5"/>
	
		<rect x="-189.3" y="156.4" transform="matrix(-3.855466e-05 1 -1 -3.855466e-05 11.0215 307.3386)" class="st0" width="82.3" height="5.5"/>
	
		<rect x="-189.3" y="178.3" transform="matrix(-4.695825e-06 1 -1 -4.695825e-06 1.840878e-02 373.2034)" class="st0" width="5.5" height="16.5"/>
	<rect x="-205.8" y="172.9" class="st0" width="5.5" height="16.5"/>
	<rect x="-205.8" y="194.9" class="st0" width="5.5" height="5.5"/>
	<rect x="-194.8" y="194.9" class="st0" width="5.5" height="5.5"/>
	<rect x="-183.8" y="194.9" class="st0" width="5.5" height="5.5"/>
	
		<rect x="-189.3" y="167.4" transform="matrix(-4.695825e-06 1 -1 -4.695825e-06 -10.9536 362.2314)" class="st0" width="5.5" height="16.5"/>
	
		<rect x="-74.1" y="222.3" transform="matrix(-1.589689e-05 -1 1 -1.589689e-05 -307.3274 164.6491)" class="st0" width="5.5" height="27.4"/>
	
		<rect x="43.9" y="214" transform="matrix(-4.090858e-06 -1 1 -4.090858e-06 -178.4008 271.6281)" class="st0" width="5.5" height="21.9"/>
	<rect x="-227.7" y="140" class="st0" width="5.5" height="5.5"/>
	<rect x="-227.7" y="151" class="st0" width="38.4" height="5.5"/>
	<rect x="-183.8" y="151" class="st0" width="5.5" height="5.5"/>
	<rect x="-183.8" y="161.9" class="st0" width="5.5" height="5.5"/>
	<rect x="-183.8" y="129" class="st0" width="5.5" height="5.5"/>
	<rect x="-101.5" y="211.3" class="st0" width="5.5" height="5.5"/>
	<rect x="-90.5" y="211.3" class="st0" width="5.5" height="5.5"/>
	<rect x="-79.6" y="211.3" class="st0" width="5.5" height="5.5"/>
	<rect x="-79.6" y="200.2" class="st0" width="5.5" height="5.5"/>
	<rect x="-79.6" y="189.4" class="st0" width="5.5" height="5.5"/>
	<rect x="-79.6" y="178.3" class="st0" width="5.5" height="5.5"/>
	<rect x="-79.6" y="167.4" class="st0" width="38.4" height="5.5"/>
	<rect x="-79.6" y="156.5" class="st0" width="38.4" height="5.5"/>
	<rect x="-79.6" y="145.4" class="st0" width="38.4" height="5.5"/>
	<rect x="-46.7" y="107.1" class="st0" width="5.5" height="32.9"/>
	<rect x="-79.6" y="107.1" class="st0" width="5.5" height="32.8"/>
	<rect x="-79.6" y="74.1" class="st0" width="5.5" height="27.4"/>
	<rect x="-46.7" y="19.2" class="st0" width="5.5" height="82.4"/>
	<rect x="-24.7" y="-13.8" class="st0" width="5.5" height="82.4"/>
	<rect x="-35.7" y="8.3" class="st0" width="5.5" height="43.9"/>
	<rect x="-35.7" y="57.6" class="st0" width="5.5" height="114.7"/>
	<rect x="-24.7" y="74.1" class="st0" width="5.5" height="131.4"/>
	<rect x="-68.5" y="178.3" class="st0" width="5.5" height="5.5"/>
	<rect x="-57.7" y="178.3" class="st0" width="5.5" height="5.5"/>
	<rect x="-46.7" y="178.3" class="st0" width="5.5" height="5.5"/>
	<rect x="-35.6" y="178.3" class="st0" width="5.5" height="5.5"/>
	<polygon class="st0" points="-68.6,216.8 -30.2,216.8 -30.2,211.3 -68.6,211.3 	"/>
	<rect x="-24.7" y="211.3" class="st0" width="5.4" height="5.5"/>
	<rect x="-2.6" y="211.3" class="st0" width="5.4" height="5.5"/>
	<rect x="-2.6" y="200.2" class="st0" width="5.4" height="5.5"/>
	<rect x="-2.6" y="189.4" class="st0" width="5.4" height="5.5"/>
	<polygon class="st0" points="8.2,216.8 57.6,216.8 57.6,211.3 8.2,211.3 	"/>
	<polygon class="st0" points="8.2,205.7 57.6,205.7 57.6,200.2 8.2,200.2 	"/>
	<polygon class="st0" points="8.2,194.9 57.6,194.9 57.6,189.4 8.2,189.4 	"/>
	<rect x="-13.6" y="74.1" class="st0" width="5.4" height="142.7"/>
	<rect x="-2.6" y="112.6" class="st0" width="5.4" height="71.3"/>
	<rect x="-2.6" y="41" class="st0" width="5.4" height="66.2"/>
	<rect x="8.2" y="41" class="st0" width="5.5" height="66.2"/>
	<rect x="8.2" y="112.4" class="st0" width="5.5" height="71.4"/>
	<rect x="19.2" y="156.4" class="st0" width="5.5" height="27.4"/>
	<rect x="30.2" y="145.5" class="st0" width="5.5" height="27.4"/>
	<rect x="30.2" y="63.2" class="st0" width="5.5" height="76.8"/>
	<rect x="30.2" y="-24.6" class="st0" width="5.5" height="71.3"/>
	<rect x="29.3" y="52.2" class="st0" width="83.1" height="5.5"/>
	<rect x="41.1" y="140" class="st0" width="5.5" height="32.9"/>
	<rect x="19.2" y="8.3" class="st0" width="5.5" height="131.7"/>
	<rect x="19.2" y="145.5" class="st0" width="5.5" height="5.8"/>
	<rect x="30.2" y="178.2" class="st0" width="5.5" height="5.8"/>
	<rect x="41.1" y="178.2" class="st0" width="5.5" height="5.8"/>
	<rect x="52.1" y="167.2" class="st0" width="5.5" height="5.8"/>
	<rect x="52.1" y="178.2" class="st0" width="5.5" height="5.8"/>
	<polygon class="st0" points="-68.6,205.7 -30.2,205.7 -30.2,200.2 -68.6,200.2 	"/>
	<polygon class="st0" points="-68.6,194.9 -30.2,194.9 -30.2,189.4 -68.6,189.4 	"/>
	<rect x="-90.5" y="74.1" class="st0" width="5.5" height="131.5"/>
	<rect x="-101.5" y="74.1" class="st0" width="5.5" height="131.5"/>
	<rect x="-112.5" y="139.8" class="st0" width="5.5" height="76.9"/>
	<rect x="-194.8" y="161.9" class="st0" width="5.5" height="5.5"/>
	<rect x="-205.8" y="161.9" class="st0" width="5.5" height="5.5"/>
	<rect x="-216.7" y="161.9" class="st0" width="5.5" height="5.5"/>
	<rect x="-139.9" y="194.9" class="st0" width="21.9" height="5.5"/>
	
		<rect x="-167.3" y="134.5" transform="matrix(-1.836970e-16 1 -1 -1.836970e-16 4.879519e-02 274.3978)" class="st0" width="60.3" height="5.5"/>
	
		<rect x="-126.2" y="159.2" transform="matrix(-1.836970e-16 1 -1 -1.836970e-16 41.1621 288.1706)" class="st0" width="5.4" height="10.9"/>
	
		<rect x="-126.2" y="148.3" transform="matrix(-1.836970e-16 1 -1 -1.836970e-16 30.2348 277.2434)" class="st0" width="5.4" height="10.9"/>
	
		<rect x="-126.2" y="137.3" transform="matrix(-1.836970e-16 1 -1 -1.836970e-16 19.2161 266.2246)" class="st0" width="5.4" height="10.9"/>
	<rect x="-139.9" y="222.3" class="st0" width="170.1" height="5.5"/>
	<rect x="-139.9" y="233.2" class="st0" width="49.4" height="5.5"/>
	<rect x="-52.1" y="233.2" class="st0" width="109.7" height="5.5"/>
	
		<rect x="-134.4" y="35" transform="matrix(-1 3.560456e-06 -3.560456e-06 -1 -263.3873 136.5777)" class="st0" width="5.5" height="66.6"/>
	
		<rect x="-134.4" y="13.6" transform="matrix(-1 4.443164e-07 -4.443164e-07 -1 -263.3868 43.8935)" class="st0" width="5.5" height="16.6"/>
	
		<rect x="-134.4" y="-24.6" transform="matrix(-1 5.806606e-07 -5.806606e-07 -1 -263.3867 -27.5008)" class="st0" width="5.5" height="21.7"/>
	
		<rect x="-134.4" y="2.6" transform="matrix(-1 1.544619e-07 -1.544619e-07 -1 -263.387 10.9996)" class="st0" width="5.5" height="5.8"/>
	
		<rect x="-123.3" y="63.2" transform="matrix(-1 1.026915e-06 -1.026915e-06 -1 -241.1972 164.7442)" class="st0" width="5.5" height="38.4"/>
	
		<rect x="-123.3" y="-74" transform="matrix(-1 3.479148e-06 -3.479148e-06 -1 -241.1957 -17.8573)" class="st0" width="5.5" height="130.1"/>
	
		<rect x="-112.5" y="-74" transform="matrix(-1 4.694567e-06 -4.694567e-06 -1 -219.4818 27.5919)" class="st0" width="5.5" height="175.6"/>
	
		<rect x="-101.5" y="-41.1" transform="matrix(-1 2.934158e-06 -2.934158e-06 -1 -197.5363 27.5916)" class="st0" width="5.5" height="109.7"/>
	
		<rect x="-90.5" y="-41.1" transform="matrix(-1 2.934158e-06 -2.934158e-06 -1 -175.5864 27.5915)" class="st0" width="5.5" height="109.7"/>
	
		<rect x="-79.6" y="-41.1" transform="matrix(-1 2.934158e-06 -2.934158e-06 -1 -153.6613 27.5915)" class="st0" width="5.5" height="109.7"/>
	
		<rect x="-101.5" y="-74" transform="matrix(-1 7.335316e-07 -7.335316e-07 -1 -197.5363 -120.535)" class="st0" width="5.5" height="27.4"/>
	
		<rect x="-90.5" y="-74" transform="matrix(-1 7.335316e-07 -7.335316e-07 -1 -175.5863 -120.535)" class="st0" width="5.5" height="27.4"/>
	
		<rect x="-79.6" y="-74" transform="matrix(-1 7.335316e-07 -7.335316e-07 -1 -153.6613 -120.535)" class="st0" width="5.5" height="27.4"/>
	
		<rect x="-134.4" y="-35.9" transform="matrix(-1 1.544619e-07 -1.544619e-07 -1 -263.387 -65.9634)" class="st0" width="5.5" height="5.8"/>
	
		<rect x="-134.4" y="-74" transform="matrix(-1 8.802571e-07 -8.802571e-07 -1 -263.3867 -115.0489)" class="st0" width="5.5" height="32.9"/>
	
		<rect x="-145.4" y="-74" transform="matrix(-1 4.107783e-06 -4.107783e-06 -1 -285.3282 5.6494)" class="st0" width="5.5" height="153.6"/>
	
		<rect x="-156.4" y="-74" transform="matrix(-1 2.737439e-06 -2.737439e-06 -1 -307.301 -45.5958)" class="st0" width="5.5" height="102.4"/>
	
		<rect x="-156.4" y="35.7" transform="matrix(-1 1.172081e-06 -1.172081e-06 -1 -307.3019 115.3107)" class="st0" width="5.5" height="43.8"/>
	
		<rect x="-167.3" y="13.8" transform="matrix(-1 1.758903e-06 -1.758903e-06 -1 -329.2186 93.3667)" class="st0" width="5.5" height="65.8"/>
	
		<rect x="-178.3" y="13.8" transform="matrix(-1 1.758903e-06 -1.758903e-06 -1 -351.1248 93.3668)" class="st0" width="5.5" height="65.8"/>
	
		<rect x="-189.3" y="13.8" transform="matrix(-1 1.758903e-06 -1.758903e-06 -1 -373.1085 93.3668)" class="st0" width="5.5" height="65.8"/>
	
		<rect x="-238.7" y="46.7" transform="matrix(1.323099e-07 -1 1 1.323099e-07 -268.883 -170.0099)" class="st0" width="38.4" height="5.5"/>
	
		<rect x="-222.2" y="74.1" transform="matrix(9.270844e-07 -1 1 9.270844e-07 -296.333 -142.5807)" class="st0" width="5.5" height="5.5"/>
	<rect x="-172.8" y="-74" class="st0" width="11" height="5.5"/>
	<rect x="-172.8" y="-95.9" class="st0" width="5.5" height="5.5"/>
	<rect x="-150.9" y="-95.9" class="st0" width="5.5" height="5.5"/>
	<rect x="-161.9" y="-211.1" class="st0" width="5.5" height="120.7"/>
	<rect x="-150.9" y="-238.6" class="st0" width="5.5" height="137.2"/>
	<rect x="-139.9" y="-95.9" class="st0" width="5.5" height="5.5"/>
	<rect x="-128.8" y="-128.8" class="st0" width="5.5" height="5.5"/>
	<rect x="-128.8" y="-139.8" class="st0" width="5.5" height="5.5"/>
	<rect x="-128.8" y="-238.6" class="st0" width="5.5" height="27.4"/>
	<rect x="-128.8" y="-205.7" class="st0" width="5.5" height="60.3"/>
	<rect x="-117.8" y="-161.8" class="st0" width="5.5" height="38.4"/>
	<rect x="-118" y="-238.6" class="st0" width="5.5" height="71.3"/>
	<rect x="-107" y="-161.8" class="st0" width="5.5" height="38.4"/>
	<rect x="-96" y="-161.8" class="st0" width="5.5" height="38.4"/>
	<rect x="-129" y="-95.9" class="st0" width="27.4" height="5.5"/>
	<rect x="-129" y="-106.9" class="st0" width="27.4" height="5.5"/>
	<rect x="-129" y="-117.9" class="st0" width="27.4" height="5.5"/>
	<rect x="19" y="-95.9" class="st0" width="16.7" height="5.5"/>
	<rect x="19" y="-106.9" class="st0" width="16.7" height="5.5"/>
	<rect x="19" y="-117.9" class="st0" width="16.7" height="5.5"/>
	<rect x="-96" y="-95.9" class="st0" width="109.7" height="5.5"/>
	<rect x="-96" y="-106.9" class="st0" width="109.7" height="5.5"/>
	<rect x="-96" y="-117.9" class="st0" width="109.7" height="5.5"/>
	<rect x="-85.1" y="-128.8" class="st0" width="148.1" height="5.5"/>
	<rect x="-85.1" y="-139.8" class="st0" width="115.1" height="5.5"/>
	<rect x="-85.1" y="-150.8" class="st0" width="115.1" height="5.5"/>
	<rect x="-85.1" y="-161.8" class="st0" width="115.1" height="5.5"/>
	<rect x="-107" y="-172.7" class="st0" width="104.2" height="5.5"/>
	<rect x="-107" y="-183.9" class="st0" width="71.4" height="5.5"/>
	<rect x="-107" y="-194.7" class="st0" width="71.4" height="5.5"/>
	<rect x="-107" y="-205.7" class="st0" width="71.4" height="5.5"/>
	<rect x="-107" y="-216.6" class="st0" width="5.5" height="5.5"/>
	<rect x="-96" y="-216.6" class="st0" width="5.5" height="5.5"/>
	<rect x="-107" y="-227.6" class="st0" width="5.5" height="5.5"/>
	<rect x="-107" y="-238.6" class="st0" width="38.4" height="5.5"/>
	<rect x="-96" y="-227.6" class="st0" width="27.5" height="5.5"/>
	
		<rect x="-74.1" y="-227.6" transform="matrix(2.779316e-07 -1 1 2.779316e-07 164.485 -285.2212)" class="st0" width="27.5" height="5.5"/>
	
		<rect x="-63.1" y="-227.6" transform="matrix(2.779316e-07 -1 1 2.779316e-07 175.4574 -274.2488)" class="st0" width="27.5" height="5.5"/>
	
		<rect x="-52.1" y="-227.6" transform="matrix(2.779316e-07 -1 1 2.779316e-07 186.4297 -263.2765)" class="st0" width="27.5" height="5.5"/>
	
		<rect x="-43.9" y="-208.4" transform="matrix(2.317070e-07 -1 1 2.317070e-07 178.1956 -233.0976)" class="st0" width="32.9" height="5.5"/>
	
		<rect x="-32.9" y="-208.4" transform="matrix(2.317070e-07 -1 1 2.317070e-07 189.1679 -222.1252)" class="st0" width="32.9" height="5.5"/>
	
		<rect x="-22" y="-208.4" transform="matrix(2.317070e-07 -1 1 2.317070e-07 200.1403 -211.1528)" class="st0" width="32.9" height="5.5"/>
	
		<rect x="-30.3" y="-183.8" transform="matrix(1.345272e-06 -1 1 1.345272e-06 153.6004 -208.5021)" class="st0" width="5.7" height="5.5"/>
	
		<rect x="-19.3" y="-183.8" transform="matrix(1.345272e-06 -1 1 1.345272e-06 164.5728 -197.5298)" class="st0" width="5.7" height="5.5"/>
	
		<rect x="-8.3" y="-183.8" transform="matrix(1.345272e-06 -1 1 1.345272e-06 175.5451 -186.5574)" class="st0" width="5.7" height="5.5"/>
	
		<rect x="8.1" y="-189.3" transform="matrix(3.585792e-06 -1 1 3.585792e-06 192.0038 -170.0986)" class="st0" width="5.7" height="16.5"/>
	
		<rect x="24.6" y="-194.8" transform="matrix(-1 1.642142e-06 -1.642142e-06 -1 54.8156 -373.0851)" class="st0" width="5.7" height="16.5"/>
	
		<rect x="8.1" y="-200.2" transform="matrix(3.585792e-06 -1 1 3.585792e-06 202.8883 -180.9831)" class="st0" width="5.7" height="16.5"/>
	
		<rect x="13.6" y="-216.7" transform="matrix(5.995941e-06 -1 1 5.995941e-06 219.3918 -186.4238)" class="st0" width="5.7" height="27.5"/>
	
		<rect x="19.1" y="-233.1" transform="matrix(8.323992e-06 -1 1 8.323992e-06 235.8048 -191.9544)" class="st0" width="5.7" height="38.4"/>
	
		<rect x="19.1" y="-244.1" transform="matrix(8.323992e-06 -1 1 8.323992e-06 246.7774 -202.9269)" class="st0" width="5.7" height="38.4"/>
	
		<rect x="19.1" y="-255" transform="matrix(8.323992e-06 -1 1 8.323992e-06 257.7495 -213.899)" class="st0" width="5.7" height="38.4"/>
	
		<rect x="-33" y="-235.9" transform="matrix(6.834376e-07 -1 1 6.834376e-07 205.7272 -260.6292)" class="st0" width="11.2" height="5.5"/>
	
		<rect x="-22.1" y="-235.9" transform="matrix(6.834376e-07 -1 1 6.834376e-07 216.6995 -249.6568)" class="st0" width="11.2" height="5.5"/>
	
		<rect x="-11.1" y="-235.9" transform="matrix(6.834376e-07 -1 1 6.834376e-07 227.6719 -238.6845)" class="st0" width="11.2" height="5.5"/>
	
		<rect x="2.5" y="-172.7" transform="matrix(-1 4.000551e-08 -4.000551e-08 -1 32.6861 -339.983)" class="st0" width="27.6" height="5.5"/>
	
		<rect x="35.4" y="-205.7" transform="matrix(-1 2.513247e-06 -2.513247e-06 -1 76.5285 -340.075)" class="st0" width="5.7" height="71.4"/>
	<rect x="-85.1" y="-216.6" class="st0" width="5.5" height="5.5"/>
	<rect x="-74.1" y="-216.6" class="st0" width="5.5" height="5.5"/>
	<rect x="-139.9" y="-172.7" class="st0" width="5.5" height="71.3"/>
	<rect x="-172.8" y="-106.9" class="st0" width="5.5" height="5.5"/>
	<rect x="-194.8" y="-128.8" class="st0" width="5.5" height="5.5"/>
	<rect x="-172.8" y="-189.2" class="st0" width="5.5" height="76.8"/>
	<rect x="-194.8" y="-139.8" class="st0" width="5.5" height="5.5"/>
	<rect x="-194.8" y="-150.8" class="st0" width="5.5" height="5.5"/>
	<rect x="-194.8" y="-238.6" class="st0" width="5.5" height="82.3"/>
	<rect x="-183.8" y="-238.6" class="st0" width="5.5" height="71.3"/>
	<rect x="-172.8" y="-238.6" class="st0" width="5.5" height="43.9"/>
	<rect x="-161.9" y="-238.6" class="st0" width="5.5" height="21.9"/>
	<rect x="-139.9" y="-238.6" class="st0" width="5.5" height="60.3"/>
	<rect x="41.1" y="118" class="st0" width="5.5" height="16.5"/>
	<rect x="52.1" y="129" class="st0" width="16.5" height="5.5"/>
	<rect x="52.1" y="118" class="st0" width="16.5" height="5.5"/>
	<rect x="41.1" y="107.1" class="st0" width="49.4" height="5.5"/>
	
		<rect x="57.6" y="79.6" transform="matrix(6.123234e-17 -1 1 6.123234e-17 -5.5851 159.1581)" class="st0" width="38.4" height="5.5"/>
	
		<rect x="68.6" y="79.6" transform="matrix(6.123234e-17 -1 1 6.123234e-17 5.3873 170.1304)" class="st0" width="38.4" height="5.5"/>
	<rect x="41.1" y="96.1" class="st0" width="27.3" height="5.5"/>
	<rect x="41.1" y="85.1" class="st0" width="16.5" height="5.5"/>
	<rect x="41.1" y="74.1" class="st0" width="16.5" height="5.5"/>
	<rect x="41.1" y="63.2" class="st0" width="27.3" height="5.5"/>
	
		<rect x="57.6" y="79.6" transform="matrix(3.090233e-07 -1 1 3.090233e-07 -16.5574 148.1857)" class="st0" width="16.5" height="5.5"/>
	<rect x="52.1" y="139.9" class="st0" width="5.5" height="22.1"/>
	<rect x="63.1" y="139.9" class="st0" width="5.5" height="22.1"/>
	<rect x="63.1" y="167.4" class="st0" width="5.5" height="71.4"/>
	<rect x="74" y="118" class="st0" width="5.5" height="120.7"/>
	<rect x="85" y="118" class="st0" width="5.5" height="120.7"/>
	<rect x="96" y="233.2" class="st0" width="5.5" height="5.5"/>
	<rect x="96" y="222.3" class="st0" width="93.3" height="5.5"/>
	<rect x="96" y="211.3" class="st0" width="93.3" height="5.5"/>
	<rect x="96" y="200.3" class="st0" width="93.3" height="5.5"/>
	
		<rect x="65.8" y="159.2" transform="matrix(6.123234e-17 -1 1 6.123234e-17 -63.2506 260.7122)" class="st0" width="66" height="5.5"/>
	
		<rect x="96" y="118" transform="matrix(6.123234e-17 -1 1 6.123234e-17 -22.0162 219.4778)" class="st0" width="5.5" height="5.5"/>
	
		<rect x="96" y="63.2" transform="matrix(6.123234e-17 -1 1 6.123234e-17 32.8165 164.6452)" class="st0" width="5.5" height="5.5"/>
	
		<rect x="106.9" y="63.2" transform="matrix(6.123234e-17 -1 1 6.123234e-17 43.7888 175.6175)" class="st0" width="5.5" height="5.5"/>
	
		<rect x="106.9" y="74.1" transform="matrix(6.123234e-17 -1 1 6.123234e-17 32.8163 186.5901)" class="st0" width="5.5" height="5.5"/>
	
		<rect x="106.9" y="85.1" transform="matrix(6.123234e-17 -1 1 6.123234e-17 21.8434 197.5629)" class="st0" width="5.5" height="5.5"/>
	
		<rect x="106.9" y="96.1" transform="matrix(6.123234e-17 -1 1 6.123234e-17 10.8709 208.5354)" class="st0" width="5.5" height="5.5"/>
	
		<rect x="106.9" y="107.1" transform="matrix(6.123234e-17 -1 1 6.123234e-17 -0.1019 219.5083)" class="st0" width="5.5" height="5.5"/>
	
		<rect x="79.5" y="90.6" transform="matrix(6.123234e-17 -1 1 6.123234e-17 5.3848 192.0768)" class="st0" width="38.5" height="5.5"/>
	
		<rect x="106.9" y="118" transform="matrix(6.123234e-17 -1 1 6.123234e-17 -11.0438 230.4502)" class="st0" width="5.5" height="5.5"/>
	
		<rect x="139.8" y="118" transform="matrix(6.123234e-17 -1 1 6.123234e-17 21.8735 263.3675)" class="st0" width="5.5" height="5.5"/>
	
		<rect x="109.7" y="159.2" transform="matrix(6.123234e-17 -1 1 6.123234e-17 -19.3161 304.5571)" class="st0" width="65.9" height="5.5"/>
	
		<rect x="150.8" y="118" transform="matrix(6.123234e-17 -1 1 6.123234e-17 32.8456 274.3396)" class="st0" width="5.5" height="5.5"/>
	
		<rect x="120.6" y="159.2" transform="matrix(6.123234e-17 -1 1 6.123234e-17 -8.344 315.5292)" class="st0" width="65.9" height="5.5"/>
	
		<rect x="161.8" y="118" transform="matrix(6.123234e-17 -1 1 6.123234e-17 43.818 285.312)" class="st0" width="5.5" height="5.5"/>
	
		<rect x="172.7" y="156.4" transform="matrix(6.123234e-17 -1 1 6.123234e-17 16.3885 334.6278)" class="st0" width="5.5" height="5.5"/>
	
		<rect x="172.7" y="167.3" transform="matrix(6.123234e-17 -1 1 6.123234e-17 5.4161 345.6002)" class="st0" width="5.5" height="5.5"/>
	
		<rect x="172.7" y="178.3" transform="matrix(6.123234e-17 -1 1 6.123234e-17 -5.556 356.5724)" class="st0" width="5.5" height="5.5"/>
	
		<rect x="222.1" y="156.4" transform="matrix(6.123234e-17 -1 1 6.123234e-17 65.7643 384.0039)" class="st0" width="5.5" height="5.5"/>
	
		<rect x="219.4" y="142.7" transform="matrix(6.123234e-17 -1 1 6.123234e-17 73.9922 370.3481)" class="st0" width="5.5" height="10.9"/>
	
		<rect x="219.4" y="131.7" transform="matrix(6.123234e-17 -1 1 6.123234e-17 84.9953 359.3449)" class="st0" width="5.5" height="10.9"/>
	
		<rect x="219.4" y="120.8" transform="matrix(6.123234e-17 -1 1 6.123234e-17 95.9216 348.4187)" class="st0" width="5.5" height="10.9"/>
	
		<rect x="224.9" y="104.3" transform="matrix(6.123234e-17 -1 1 6.123234e-17 112.4257 342.9166)" class="st0" width="5.5" height="21.9"/>
	
		<rect x="222.1" y="167.3" transform="matrix(6.123234e-17 -1 1 6.123234e-17 54.792 394.9762)" class="st0" width="5.5" height="5.5"/>
	
		<rect x="222.1" y="178.3" transform="matrix(6.123234e-17 -1 1 6.123234e-17 43.8198 405.9484)" class="st0" width="5.5" height="5.5"/>
	
		<rect x="224.9" y="71.3" transform="matrix(6.123234e-17 -1 1 6.123234e-17 145.3711 309.942)" class="st0" width="5.5" height="21.9"/>
	
		<rect x="224.9" y="-49.4" transform="matrix(6.123234e-17 -1 1 6.123234e-17 266.0285 189.319)" class="st0" width="5.5" height="22"/>
	
		<rect x="224.9" y="-60.4" transform="matrix(6.123234e-17 -1 1 6.123234e-17 277.05 178.2974)" class="st0" width="5.5" height="22"/>
	
		<rect x="224.9" y="82.3" transform="matrix(6.123234e-17 -1 1 6.123234e-17 134.3987 320.9144)" class="st0" width="5.5" height="21.9"/>
	
		<rect x="224.9" y="93.3" transform="matrix(6.123234e-17 -1 1 6.123234e-17 123.4265 331.8865)" class="st0" width="5.5" height="21.9"/>
	
		<rect x="205.7" y="150.9" transform="matrix(6.123234e-17 -1 1 6.123234e-17 82.2074 389.5633)" class="st0" width="60.3" height="5.5"/>
	
		<rect x="197.5" y="142.7" transform="matrix(6.123234e-17 -1 1 6.123234e-17 41.1051 359.3467)" class="st0" width="5.5" height="32.9"/>
	
		<rect x="197.5" y="153.6" transform="matrix(6.123234e-17 -1 1 6.123234e-17 30.1328 370.3191)" class="st0" width="5.5" height="32.9"/>
	
		<rect x="197.5" y="164.6" transform="matrix(6.123234e-17 -1 1 6.123234e-17 19.1606 381.2913)" class="st0" width="5.5" height="32.9"/>
	
		<rect x="172.7" y="189.3" transform="matrix(6.123234e-17 -1 1 6.123234e-17 -16.5442 367.5607)" class="st0" width="5.6" height="5.5"/>
	
		<rect x="183.7" y="189.3" transform="matrix(6.123234e-17 -1 1 6.123234e-17 -5.5429 378.5621)" class="st0" width="5.6" height="5.5"/>
	
		<rect x="189.2" y="194.8" transform="matrix(6.123234e-17 -1 1 6.123234e-17 -0.1498 395.016)" class="st0" width="16.5" height="5.5"/>
	
		<rect x="205.7" y="189.3" transform="matrix(-1 4.420693e-07 -4.420693e-07 -1 422.396 384.1334)" class="st0" width="11" height="5.5"/>
	
		<rect x="222.2" y="189.3" transform="matrix(6.123234e-17 -1 1 6.123234e-17 32.9052 417.01)" class="st0" width="5.6" height="5.5"/>
	
		<rect x="233.1" y="189.3" transform="matrix(6.123234e-17 -1 1 6.123234e-17 43.8329 427.9378)" class="st0" width="5.6" height="5.5"/>
	
		<rect x="183.7" y="101.5" transform="matrix(6.123234e-17 -1 1 6.123234e-17 71.2348 301.7562)" class="st0" width="5.5" height="27.5"/>
	
		<rect x="183.7" y="101.5" transform="matrix(6.123234e-17 -1 1 6.123234e-17 82.2218 290.7976)" class="st0" width="5.5" height="5.5"/>
	
		<rect x="131.6" y="159.2" transform="matrix(6.123234e-17 -1 1 6.123234e-17 2.6284 326.5016)" class="st0" width="65.9" height="5.5"/>
	
		<rect x="85.1" y="85.1" transform="matrix(6.123234e-17 -1 1 6.123234e-17 32.8586 208.4925)" class="st0" width="71.2" height="5.5"/>
	
		<rect x="60.3" y="120.8" transform="matrix(6.123234e-17 -1 1 6.123234e-17 8.1274 255.1684)" class="st0" width="142.6" height="5.5"/>
	
		<rect x="76.7" y="159.2" transform="matrix(6.123234e-17 -1 1 6.123234e-17 -52.2782 271.6845)" class="st0" width="66" height="5.5"/>
	
		<rect x="87.7" y="159.2" transform="matrix(6.123234e-17 -1 1 6.123234e-17 -41.247 282.5981)" class="st0" width="66" height="5.5"/>
	<rect x="107" y="233.3" class="st0" width="5.5" height="5.5"/>
	<rect x="117.9" y="233.2" class="st0" width="5.5" height="5.5"/>
	<rect x="129" y="233.3" class="st0" width="5.5" height="5.5"/>
	<rect x="139.9" y="233.2" class="st0" width="5.5" height="5.5"/>
	<rect x="150.9" y="233.3" class="st0" width="5.5" height="5.5"/>
	<rect x="161.8" y="233.3" class="st0" width="43.9" height="5.5"/>
	<rect x="211.2" y="233.3" class="st0" width="27.4" height="5.5"/>
	<rect x="194.7" y="222.3" class="st0" width="27.4" height="5.5"/>
	<rect x="227.8" y="222.3" class="st0" width="10.9" height="5.5"/>
	
		<rect x="205.7" y="211.3" transform="matrix(-1 9.074080e-07 -9.074080e-07 -1 444.283 428.0874)" class="st0" width="32.9" height="5.5"/>
	
		<rect x="205.7" y="200.3" transform="matrix(-1 9.074080e-07 -9.074080e-07 -1 444.283 406.0785)" class="st0" width="32.9" height="5.5"/>
	
		<rect x="194.7" y="211.3" transform="matrix(-1 1.088889e-06 -1.088889e-06 -1 394.8665 428.0873)" class="st0" width="5.4" height="5.5"/>
	<rect x="19.2" y="-2.7" class="st0" width="5.5" height="5.5"/>
	<rect x="19.2" y="-24.6" class="st0" width="5.5" height="16.5"/>
	<rect x="41.1" y="41.2" class="st0" width="27.4" height="5.5"/>
	<rect x="41.1" y="30.2" class="st0" width="43.9" height="5.5"/>
	<rect x="74" y="41.2" class="st0" width="5.5" height="5.5"/>
	<rect x="85" y="41.2" class="st0" width="11" height="5.5"/>
	<rect x="101.5" y="41.2" class="st0" width="32.9" height="5.5"/>
	<rect x="150.9" y="35.7" class="st0" width="38.4" height="5.5"/>
	
		<rect x="194.9" y="24.8" transform="matrix(6.667461e-14 -1 1 6.667461e-14 180.9721 236.1398)" class="st0" width="27.3" height="5.5"/>
	
		<rect x="194.7" y="35.7" transform="matrix(3.304636e-13 -1 1 3.304636e-13 159.0117 235.959)" class="st0" width="5.5" height="5.5"/>
	
		<rect x="189.3" y="19.3" transform="matrix(1.119717e-13 -1 1 1.119717e-13 175.4015 219.5692)" class="st0" width="16.3" height="5.5"/>
	
		<rect x="211.2" y="19.2" transform="matrix(1.101954e-13 -1 1 1.101954e-13 197.5003 241.4129)" class="st0" width="16.6" height="5.5"/>
	
		<rect x="227.7" y="24.8" transform="matrix(-1 -1.662118e-13 1.662118e-13 -1 466.2853 55.0026)" class="st0" width="11" height="5.5"/>
	
		<rect x="227.7" y="13.7" transform="matrix(-1 -1.224647e-16 1.224647e-16 -1 466.2853 32.8425)" class="st0" width="11" height="5.5"/>
	
		<rect x="224.9" y="27.5" transform="matrix(1.321671e-12 -1 1 1.321671e-12 189.172 266.1193)" class="st0" width="5.5" height="21.9"/>
	
		<rect x="189.2" y="-46.6" transform="matrix(6.123234e-17 -1 1 6.123234e-17 241.2807 153.6589)" class="st0" width="16.5" height="5.5"/>
	
		<rect x="200.3" y="-46.6" transform="matrix(6.123234e-17 -1 1 6.123234e-17 252.3669 164.7451)" class="st0" width="16.5" height="5.5"/>
	<rect x="101.5" y="30.2" class="st0" width="32.9" height="5.5"/>
	<rect x="90.5" y="30.2" class="st0" width="5.5" height="5.5"/>
	<rect x="41.1" y="-2.5" class="st0" width="5.5" height="27.2"/>
	<rect x="52.1" y="-2.5" class="st0" width="5.5" height="27.2"/>
	<rect x="63.1" y="-2.5" class="st0" width="5.5" height="27.2"/>
	<rect x="74" y="-2.5" class="st0" width="5.5" height="27.2"/>
	<rect x="85" y="-2.6" class="st0" width="5.5" height="16.2"/>
	<rect x="95.9" y="-2.6" class="st0" width="5.5" height="16.2"/>
	<rect x="107" y="-2.6" class="st0" width="5.5" height="16.2"/>
	<rect x="117.9" y="-2.6" class="st0" width="5.5" height="16.2"/>
	<rect x="128.9" y="-2.6" class="st0" width="5.5" height="27.4"/>
	<rect x="139.8" y="-2.6" class="st0" width="5.5" height="10.8"/>
	<rect x="150.8" y="-2.6" class="st0" width="5.5" height="10.8"/>
	<rect x="123.5" y="-227.5" class="st0" width="5.5" height="10.8"/>
	<rect x="134.4" y="-227.5" class="st0" width="5.5" height="10.8"/>
	<rect x="145.4" y="-227.5" class="st0" width="5.5" height="10.8"/>
	<rect x="156.4" y="-227.5" class="st0" width="5.5" height="10.8"/>
	<rect x="167.4" y="-227.5" class="st0" width="5.5" height="10.8"/>
	<rect x="178.3" y="-227.5" class="st0" width="5.5" height="10.8"/>
	<rect x="189.3" y="-227.5" class="st0" width="5.5" height="10.8"/>
	<rect x="200.3" y="-227.5" class="st0" width="5.5" height="10.8"/>
	<rect x="211.3" y="-227.5" class="st0" width="5.5" height="10.8"/>
	<rect x="222.2" y="-227.5" class="st0" width="5.5" height="10.8"/>
	<rect x="233.1" y="-227.5" class="st0" width="5.5" height="10.8"/>
	
		<rect x="137.1" y="82.4" transform="matrix(1.661506e-13 -1 1 1.661506e-13 57.4904 227.7505)" class="st0" width="10.9" height="5.5"/>
	
		<rect x="148.1" y="82.4" transform="matrix(1.661506e-13 -1 1 1.661506e-13 68.4626 238.7226)" class="st0" width="10.9" height="5.5"/>
	<rect x="139.9" y="96" class="st0" width="16.5" height="5.5"/>
	<rect x="139.9" y="107" class="st0" width="16.5" height="5.5"/>
	
		<rect x="156.3" y="101.5" transform="matrix(-4.019478e-07 -1 1 -4.019478e-07 60.2603 268.8701)" class="st0" width="16.5" height="5.5"/>
	
		<rect x="159.1" y="82.3" transform="matrix(1.047533e-05 -1 1 1.047533e-05 79.4473 249.6802)" class="st0" width="11" height="5.5"/>
	
		<rect x="178.2" y="85" transform="matrix(-4.005352e-07 -1 1 -4.005352e-07 98.6951 274.3245)" class="st0" width="16.6" height="5.5"/>
	
		<rect x="172.8" y="123.4" transform="matrix(-1 6.437777e-06 -6.437777e-06 -1 373.0199 252.4094)" class="st0" width="27.4" height="5.5"/>
	
		<rect x="172.8" y="134.4" transform="matrix(-1 6.437777e-06 -6.437777e-06 -1 373.0199 274.3484)" class="st0" width="27.4" height="5.5"/>
	
		<rect x="172.8" y="145.4" transform="matrix(-1 6.437777e-06 -6.437777e-06 -1 373.02 296.293)" class="st0" width="27.4" height="5.5"/>
	
		<rect x="194.7" y="101.5" transform="matrix(6.123234e-17 -1 1 6.123234e-17 93.2241 301.7998)" class="st0" width="5.5" height="5.5"/>
	
		<rect x="189.2" y="85" transform="matrix(-4.005352e-07 -1 1 -4.005352e-07 109.6973 285.3268)" class="st0" width="16.6" height="5.5"/>
	
		<rect x="205.7" y="101.5" transform="matrix(6.123234e-17 -1 1 6.123234e-17 104.1964 312.7722)" class="st0" width="5.5" height="5.5"/>
	
		<rect x="200.2" y="85" transform="matrix(-4.005352e-07 -1 1 -4.005352e-07 120.6697 296.2991)" class="st0" width="16.6" height="5.5"/>
	
		<rect x="189.3" y="128.9" transform="matrix(-9.694300e-06 -1 1 -9.694300e-06 76.7968 340.1777)" class="st0" width="38.5" height="5.5"/>
	
		<rect x="161.7" y="90.5" transform="matrix(-9.095005e-06 -1 1 -9.095005e-06 82.2245 268.7944)" class="st0" width="27.6" height="5.5"/>
	<rect x="139.9" y="13.8" class="st0" width="5.5" height="49.3"/>
	<rect x="150.8" y="57.7" class="st0" width="38.4" height="5.5"/>
	<rect x="150.8" y="46.7" class="st0" width="87.8" height="5.5"/>
	<rect x="194.3" y="57.7" class="st0" width="44.3" height="5.5"/>
	<rect x="139.8" y="68.7" class="st0" width="98.8" height="5.8"/>
	<rect x="161.8" y="2.8" class="st0" width="76.8" height="5.5"/>
	<rect x="41.1" y="-13.6" class="st0" width="32.9" height="5.5"/>
	<rect x="-14.2" y="-35.6" class="st0" width="49.6" height="5.5"/>
	<rect x="90.5" y="-13.6" class="st0" width="32.9" height="5.5"/>
	<rect x="79.5" y="-13.6" class="st0" width="5.5" height="5.5"/>
	<rect x="128.9" y="-13.6" class="st0" width="5.5" height="5.5"/>
	<rect x="233.1" y="-63" class="st0" width="5.5" height="5.5"/>
	<rect x="139.9" y="-13.6" class="st0" width="16.4" height="5.5"/>
	<rect x="128.9" y="-35.6" class="st0" width="5.5" height="5.5"/>
	<rect x="139.9" y="-35.6" class="st0" width="16.4" height="5.5"/>
	<rect x="128.9" y="-46.6" class="st0" width="5.5" height="5.5"/>
	<rect x="90.5" y="-68.5" class="st0" width="5.5" height="5.5"/>
	<rect x="101.5" y="-68.5" class="st0" width="5.5" height="5.5"/>
	<rect x="112.4" y="-68.5" class="st0" width="5.5" height="5.5"/>
	<rect x="139.9" y="-46.6" class="st0" width="16.4" height="5.5"/>
	<rect x="128.9" y="-57.5" class="st0" width="27.4" height="5.5"/>
	<rect x="123.4" y="-68.5" class="st0" width="32.9" height="5.5"/>
	<rect x="101.5" y="-46.6" class="st0" width="21.9" height="5.5"/>
	<rect x="63.1" y="-68.5" class="st0" width="21.9" height="5.5"/>
	
		<rect x="63.1" y="-90.4" transform="matrix(-2.319954e-07 -1 1 -2.319954e-07 153.5168 -21.8945)" class="st0" width="5.5" height="5.5"/>
	
		<rect x="54.8" y="-109.7" transform="matrix(-2.305947e-07 -1 1 -2.305947e-07 172.7667 -41.1443)" class="st0" width="22.1" height="5.5"/>
	
		<rect x="74" y="-90.4" transform="matrix(-2.319954e-07 -1 1 -2.319954e-07 164.4667 -10.9446)" class="st0" width="5.5" height="5.5"/>
	
		<rect x="65.7" y="-109.7" transform="matrix(-2.305947e-07 -1 1 -2.305947e-07 183.7166 -30.1944)" class="st0" width="22.1" height="5.5"/>
	
		<rect x="106.9" y="-112.4" transform="matrix(-9.289466e-07 -1 1 -9.289466e-07 219.3217 4.175294e-02)" class="st0" width="5.5" height="5.5"/>
	
		<rect x="117.9" y="-112.4" transform="matrix(-9.289466e-07 -1 1 -9.289466e-07 230.2715 10.9916)" class="st0" width="5.5" height="5.5"/>
	
		<rect x="128.9" y="-112.4" transform="matrix(-9.289468e-07 -1 1 -9.289468e-07 241.2748 21.9949)" class="st0" width="5.5" height="5.5"/>
	
		<rect x="139.8" y="-112.4" transform="matrix(-9.289466e-07 -1 1 -9.289466e-07 252.2247 32.9448)" class="st0" width="5.5" height="5.5"/>
	
		<rect x="150.8" y="-112.4" transform="matrix(-9.289466e-07 -1 1 -9.289466e-07 263.2196 43.9397)" class="st0" width="5.5" height="5.5"/>
	
		<rect x="161.8" y="-112.4" transform="matrix(-9.289466e-07 -1 1 -9.289466e-07 274.1695 54.8895)" class="st0" width="5.5" height="5.5"/>
	
		<rect x="172.7" y="-112.4" transform="matrix(-9.289466e-07 -1 1 -9.289466e-07 285.1053 65.8254)" class="st0" width="5.5" height="5.5"/>
	<rect x="63.1" y="-79.5" class="st0" width="82.4" height="5.5"/>
	<rect x="85" y="-90.4" class="st0" width="93.2" height="5.5"/>
	<rect x="85" y="-101.4" class="st0" width="93.2" height="5.5"/>
	<rect x="194.8" y="-63" class="st0" width="32.9" height="5.5"/>
	
		<rect x="194.8" y="-74" transform="matrix(-1 -2.609157e-07 2.609157e-07 -1 394.9707 -142.4766)" class="st0" width="5.5" height="5.5"/>
	
		<rect x="200.2" y="-112.4" transform="matrix(-1 -1.564979e-06 1.564979e-06 -1 405.9453 -191.8436)" class="st0" width="5.5" height="32.9"/>
	
		<rect x="211.2" y="-112.4" transform="matrix(-1 -1.564979e-06 1.564979e-06 -1 427.8567 -191.8436)" class="st0" width="5.5" height="32.9"/>
	
		<rect x="222.2" y="-112.4" transform="matrix(-1 -1.564979e-06 1.564979e-06 -1 449.7981 -191.8436)" class="st0" width="5.5" height="32.9"/>
	
		<rect x="233.1" y="-112.4" transform="matrix(-1 -1.564979e-06 1.564979e-06 -1 471.701 -191.8435)" class="st0" width="5.5" height="32.9"/>
	
		<rect x="205.7" y="-74" transform="matrix(-1 -2.609158e-07 2.609158e-07 -1 444.3182 -142.4766)" class="st0" width="32.9" height="5.5"/>
	<rect x="-13.7" y="-46.5" class="st0" width="109.7" height="5.5"/>
	<rect x="-13.7" y="-57.5" class="st0" width="137.1" height="5.5"/>
	<rect x="-13.7" y="-68.5" class="st0" width="49.5" height="5.5"/>
	
		<rect x="16.4" y="-93.2" transform="matrix(-1.877294e-07 -1 1 -1.877294e-07 134.3102 -46.573)" class="st0" width="54.9" height="5.5"/>
	
		<rect x="27.5" y="-93.2" transform="matrix(-1.877294e-07 -1 1 -1.877294e-07 145.403 -35.4803)" class="st0" width="54.9" height="5.5"/>
	<rect x="194.7" y="-8.1" class="st0" width="43.9" height="5.5"/>
	<rect x="194.7" y="-30.1" class="st0" width="43.9" height="5.5"/>
	<rect x="161.8" y="-79.5" class="st0" width="5.5" height="76.8"/>
	<rect x="172.7" y="-79.5" class="st0" width="5.5" height="76.8"/>
	<rect x="183.7" y="-79.5" class="st0" width="5.5" height="76.8"/>
	<rect x="46.5" y="-156.3" class="st0" width="5.6" height="21.9"/>
	<rect x="46.5" y="-238.6" class="st0" width="5.6" height="76.8"/>
	<rect x="57.6" y="-156.3" class="st0" width="5.6" height="21.9"/>
	<rect x="68.5" y="-156.3" class="st0" width="5.6" height="32.9"/>
	
		<rect x="153.5" y="-153.7" transform="matrix(6.123234e-17 -1 1 6.123234e-17 277.1403 35.4738)" class="st0" width="5.6" height="65.8"/>
	
		<rect x="52" y="-46.6" transform="matrix(6.123234e-17 -1 1 6.123234e-17 87.6982 22.026)" class="st0" width="5.6" height="27.4"/>
	
		<rect x="95.9" y="-57.5" transform="matrix(6.123234e-17 -1 1 6.123234e-17 131.5735 65.9013)" class="st0" width="5.6" height="49.4"/>
	
		<rect x="95.9" y="-79.4" transform="matrix(6.123234e-17 -1 1 6.123234e-17 120.5742 76.917)" class="st0" width="5.6" height="115.2"/>
	
		<rect x="101.4" y="-167.2" transform="matrix(6.123234e-17 -1 1 6.123234e-17 257.7511 -49.3163)" class="st0" width="5.6" height="27.4"/>
	
		<rect x="95.9" y="-140" transform="matrix(6.123234e-17 -1 1 6.123234e-17 230.5303 -33.0802)" class="st0" width="5.6" height="16.4"/>
	
		<rect x="112.4" y="-134.5" transform="matrix(6.123234e-17 -1 1 6.123234e-17 246.996 -16.6144)" class="st0" width="5.6" height="5.5"/>
	
		<rect x="194.6" y="-123.6" transform="matrix(6.123234e-17 -1 1 6.123234e-17 318.2456 76.5791)" class="st0" width="5.6" height="5.5"/>
	
		<rect x="205.6" y="-123.6" transform="matrix(6.123234e-17 -1 1 6.123234e-17 329.2891 87.6226)" class="st0" width="5.6" height="5.5"/>
	
		<rect x="216.6" y="-123.6" transform="matrix(6.123234e-17 -1 1 6.123234e-17 340.2614 98.5949)" class="st0" width="5.6" height="5.5"/>
	
		<rect x="230.3" y="-126.3" transform="matrix(6.123234e-17 -1 1 6.123234e-17 353.9647 112.2976)" class="st0" width="5.6" height="11"/>
	
		<rect x="233.1" y="-134.6" transform="matrix(6.123234e-17 -1 1 6.123234e-17 367.6966 104.0864)" class="st0" width="5.6" height="5.5"/>
	
		<rect x="233.1" y="-145.5" transform="matrix(6.123234e-17 -1 1 6.123234e-17 378.6691 93.1138)" class="st0" width="5.6" height="5.5"/>
	
		<rect x="233.1" y="-178.5" transform="matrix(6.123234e-17 -1 1 6.123234e-17 411.6512 60.1318)" class="st0" width="5.6" height="5.5"/>
	
		<rect x="233.1" y="-189.5" transform="matrix(6.123234e-17 -1 1 6.123234e-17 422.6237 49.1593)" class="st0" width="5.6" height="5.5"/>
	
		<rect x="222.1" y="-178.5" transform="matrix(6.123234e-17 -1 1 6.123234e-17 400.6809 49.1615)" class="st0" width="5.6" height="5.5"/>
	
		<rect x="222.1" y="-189.5" transform="matrix(6.123234e-17 -1 1 6.123234e-17 411.6534 38.189)" class="st0" width="5.6" height="5.5"/>
	
		<rect x="227.6" y="-162.2" transform="matrix(6.123234e-17 -1 1 6.123234e-17 384.3739 76.4389)" class="st0" width="5.6" height="16.5"/>
	
		<rect x="227.6" y="-173.2" transform="matrix(6.123234e-17 -1 1 6.123234e-17 395.3464 65.4663)" class="st0" width="5.6" height="16.5"/>
	
		<rect x="189.1" y="-189.4" transform="matrix(-1 3.267956e-07 -3.267956e-07 -1 383.8522 -373.3459)" class="st0" width="5.6" height="5.5"/>
	
		<rect x="200.1" y="-189.4" transform="matrix(-1 3.267959e-07 -3.267959e-07 -1 405.7973 -373.3459)" class="st0" width="5.6" height="5.5"/>
	
		<rect x="211.1" y="-189.4" transform="matrix(-1 3.267959e-07 -3.267959e-07 -1 427.7407 -373.3459)" class="st0" width="5.6" height="5.5"/>
	
		<rect x="95.9" y="-151" transform="matrix(6.123234e-17 -1 1 6.123234e-17 241.5027 -44.0526)" class="st0" width="5.6" height="16.4"/>
	<rect x="134.4" y="-145.3" class="st0" width="5.6" height="16.4"/>
	<rect x="145.3" y="-145.3" class="st0" width="5.6" height="16.4"/>
	<rect x="156.3" y="-211.4" class="st0" width="5.6" height="82.3"/>
	<rect x="123.4" y="-145.3" class="st0" width="5.6" height="16.4"/>
	<rect x="178.3" y="-145.5" class="st0" width="5.6" height="16.4"/>
	<rect x="189.2" y="-178.4" class="st0" width="5.6" height="49.4"/>
	<rect x="200.2" y="-178.4" class="st0" width="5.6" height="49.4"/>
	<rect x="211.2" y="-178.6" class="st0" width="5.6" height="27.4"/>
	
		<rect x="216.6" y="-140" transform="matrix(1.071642e-04 -1 1 1.071642e-04 351.2098 87.6372)" class="st0" width="5.6" height="16.4"/>
	
		<rect x="216.6" y="-151" transform="matrix(1.071642e-04 -1 1 1.071642e-04 362.1823 76.6658)" class="st0" width="5.6" height="16.4"/>
	<rect x="167.3" y="-145.5" class="st0" width="5.6" height="16.4"/>
	
		<rect x="172.7" y="-162" transform="matrix(8.672900e-06 -1 1 8.672900e-06 329.3264 21.7366)" class="st0" width="5.6" height="16.4"/>
	
		<rect x="172.7" y="-172.9" transform="matrix(8.672900e-06 -1 1 8.672900e-06 340.1819 10.8812)" class="st0" width="5.6" height="16.4"/>
	
		<rect x="172.7" y="-184" transform="matrix(8.672900e-06 -1 1 8.672900e-06 351.2955 -0.2323)" class="st0" width="5.6" height="16.4"/>
	
		<rect x="172.7" y="-194.8" transform="matrix(8.672900e-06 -1 1 8.672900e-06 362.1266 -11.0633)" class="st0" width="5.6" height="16.4"/>
	<rect x="167.3" y="-200.5" class="st0" width="5.6" height="5.5"/>
	
		<rect x="205.7" y="-228" transform="matrix(-3.182381e-05 1 -1 -3.182381e-05 10.683 -406.2644)" class="st0" width="5.6" height="60.3"/>
	
		<rect x="233" y="-211.1" transform="matrix(-1 -5.470777e-08 5.470777e-08 -1 471.654 -416.7908)" class="st0" width="5.6" height="5.5"/>
	
		<rect x="194.7" y="-238.6" transform="matrix(3.182381e-05 -1 1 3.182381e-05 405.8711 -10.9068)" class="st0" width="5.6" height="60.3"/>
	
		<rect x="211.2" y="-260.4" transform="matrix(2.590671e-05 -1 1 2.590671e-05 449.8315 -21.8075)" class="st0" width="5.6" height="49.1"/>
	
		<rect x="145.2" y="-167.3" transform="matrix(-1 3.267956e-07 -3.267956e-07 -1 296.0953 -329.0101)" class="st0" width="5.6" height="5.5"/>
	
		<rect x="128.8" y="-172.9" transform="matrix(8.672900e-06 -1 1 8.672900e-06 296.2981 -32.9915)" class="st0" width="5.6" height="16.4"/>
	
		<rect x="134.3" y="-222.4" transform="matrix(1.446592e-05 -1 1 1.446592e-05 345.8267 -71.534)" class="st0" width="5.6" height="27.4"/>
	
		<rect x="150.8" y="-266" transform="matrix(3.181216e-05 -1 1 3.181216e-05 389.4129 -82.2253)" class="st0" width="5.6" height="60.3"/>
	
		<rect x="145.2" y="-178.2" transform="matrix(-1 3.267956e-07 -3.267956e-07 -1 296.0953 -350.9556)" class="st0" width="5.6" height="5.5"/>
	
		<rect x="128.8" y="-183.7" transform="matrix(8.672900e-06 -1 1 8.672900e-06 307.1298 -43.8231)" class="st0" width="5.6" height="16.4"/>
	<rect x="123.5" y="-200.1" class="st0" width="5.6" height="5.5"/>
	
		<rect x="139.9" y="-205.7" transform="matrix(-8.824705e-06 1 -1 -8.824705e-06 -54.718 -340.1389)" class="st0" width="5.6" height="16.4"/>
	<rect x="123.4" y="-189.1" class="st0" width="5.6" height="5.5"/>
	
		<rect x="139.8" y="-194.7" transform="matrix(-8.824705e-06 1 -1 -8.824705e-06 -43.8159 -329.0954)" class="st0" width="5.6" height="16.4"/>
	
		<rect x="112.4" y="-145.5" transform="matrix(6.123234e-17 -1 1 6.123234e-17 257.9684 -27.5868)" class="st0" width="5.6" height="5.5"/>
	
		<rect x="123.5" y="-156.3" transform="matrix(-1 2.501927e-07 -2.501927e-07 -1 252.5811 -307.0674)" class="st0" width="5.6" height="5.5"/>
	
		<rect x="134.4" y="-156.3" transform="matrix(-1 2.501927e-07 -2.501927e-07 -1 274.3846 -307.0674)" class="st0" width="5.6" height="5.5"/>
	
		<rect x="145.3" y="-156.3" transform="matrix(-1 2.501927e-07 -2.501927e-07 -1 296.2844 -307.0675)" class="st0" width="5.6" height="5.5"/>
	
		<rect x="82.4" y="-230.4" transform="matrix(6.123234e-17 -1 1 6.123234e-17 320.9855 -134.3542)" class="st0" width="21.8" height="5.5"/>
	
		<rect x="93.3" y="-230.4" transform="matrix(6.123234e-17 -1 1 6.123234e-17 331.8872 -123.4525)" class="st0" width="21.8" height="5.5"/>
	
		<rect x="104.3" y="-230.4" transform="matrix(6.123234e-17 -1 1 6.123234e-17 342.8605 -112.4792)" class="st0" width="21.8" height="5.5"/>
	<rect x="68.5" y="-167.2" class="st0" width="5.6" height="5.5"/>
	<rect x="68.5" y="-178.2" class="st0" width="5.6" height="5.5"/>
	<rect x="68.5" y="-189.2" class="st0" width="5.6" height="5.5"/>
	<rect x="68.5" y="-200.2" class="st0" width="5.6" height="5.5"/>
	<rect x="68.5" y="-238.6" class="st0" width="5.6" height="32.9"/>
	<rect x="90.5" y="-211.4" class="st0" width="5.6" height="49.7"/>
	<rect x="101.4" y="-211.4" class="st0" width="5.6" height="49.7"/>
	<rect x="112.4" y="-211.4" class="st0" width="5.6" height="49.7"/>
	<rect x="79.4" y="-238.6" class="st0" width="5.6" height="109.7"/>
	<rect x="57.6" y="-238.6" class="st0" width="5.6" height="76.8"/>
	
		<rect x="145.4" y="19.3" transform="matrix(1.101954e-13 -1 1 1.101954e-13 131.5695 175.6157)" class="st0" width="16.5" height="5.5"/>
	
		<rect x="156.3" y="19.3" transform="matrix(1.101954e-13 -1 1 1.101954e-13 142.5419 186.5881)" class="st0" width="16.5" height="5.5"/>
	
		<rect x="167.3" y="19.3" transform="matrix(1.101954e-13 -1 1 1.101954e-13 153.4555 197.5017)" class="st0" width="16.5" height="5.5"/>
	
		<rect x="178.3" y="19.3" transform="matrix(1.101954e-13 -1 1 1.101954e-13 164.4866 208.5328)" class="st0" width="16.5" height="5.5"/>
	
		<rect x="-13.8" y="-85" transform="matrix(-1 1.096308e-06 -1.096308e-06 -1 -21.9461 -158.9547)" class="st0" width="5.7" height="11"/>
	
		<rect x="-2.9" y="-85" transform="matrix(-1 1.096308e-06 -1.096308e-06 -1 -4.003497e-02 -158.9547)" class="st0" width="5.7" height="11"/>
	
		<rect x="8.2" y="-85" transform="matrix(-1 1.096308e-06 -1.096308e-06 -1 22.0904 -158.9547)" class="st0" width="5.7" height="11"/>
	
		<rect x="19.2" y="-85" transform="matrix(-1 1.096308e-06 -1.096308e-06 -1 43.9965 -158.9547)" class="st0" width="5.7" height="11"/>
	
		<rect x="30.1" y="-85" transform="matrix(-1 1.096308e-06 -1.096308e-06 -1 65.7917 -158.9547)" class="st0" width="5.7" height="11"/>
	
		<rect x="216.7" y="-19.1" transform="matrix(-1 1.654919e-07 -1.654919e-07 -1 444.3176 -32.7567)" class="st0" width="10.9" height="5.5"/>
	
		<rect x="205.7" y="-19.1" transform="matrix(-1 3.267980e-07 -3.267980e-07 -1 416.9684 -32.7564)" class="st0" width="5.5" height="5.5"/>
	
		<rect x="194.7" y="-19.1" transform="matrix(-1 3.267980e-07 -3.267980e-07 -1 395.024 -32.7564)" class="st0" width="5.5" height="5.5"/>
	
		<rect x="233" y="-19.1" transform="matrix(-1 3.267980e-07 -3.267980e-07 -1 471.6253 -32.7564)" class="st0" width="5.5" height="5.5"/>
	<rect x="183.7" y="-112.4" class="st0" width="11" height="5.5"/>
	<rect x="183.7" y="-101.4" class="st0" width="11" height="5.5"/>
	<rect x="183.7" y="-90.4" class="st0" width="11" height="5.5"/>
	<rect x="85" y="19.2" class="st0" width="38.4" height="5.6"/>
	<rect x="85" y="-123.4" class="st0" width="32.9" height="5.3"/>
	<rect x="150.8" y="-79.5" class="st0" width="5.5" height="5.5"/>
	<rect x="85" y="-112.4" class="st0" width="16.4" height="5.5"/>
	<rect x="-128.9" y="172.9" class="st0" width="10.9" height="5.5"/>
	<rect x="-139.9" y="183.9" class="st0" width="21.9" height="5.5"/>
	<rect x="-139.9" y="172.9" class="st0" width="5.5" height="5.5"/>
	<rect x="-123.5" y="205.8" class="st0" width="5.5" height="11"/>
	<rect x="-134.4" y="205.8" class="st0" width="5.5" height="11"/>
	<rect x="-145.4" y="205.8" class="st0" width="5.5" height="11"/>
	<rect x="-150.9" y="227.8" class="st0" width="5.5" height="11"/>
	<rect x="-161.9" y="227.8" class="st0" width="5.5" height="11"/>
	<rect x="-172.9" y="227.8" class="st0" width="5.5" height="11"/>
	<rect x="-183.9" y="227.8" class="st0" width="5.5" height="11"/>
	<rect x="-194.8" y="227.8" class="st0" width="5.5" height="11"/>
	<rect x="-205.8" y="227.8" class="st0" width="5.5" height="11"/>
	<rect x="-216.8" y="227.8" class="st0" width="5.5" height="11"/>
	<rect x="-227.7" y="227.8" class="st0" width="5.5" height="11"/>
	<rect x="-238.7" y="227.8" class="st0" width="5.5" height="11"/>
	<rect x="-238.7" y="205.6" class="st0" width="87.8" height="5.7"/>
	<rect x="-238.7" y="216.6" class="st0" width="54.8" height="5.7"/>
	<rect x="-178.3" y="216.8" class="st0" width="5.5" height="5.5"/>
	<rect x="-167.3" y="216.8" class="st0" width="16.4" height="5.5"/>
</symbol>
<g>
	<g>
		<circle cx="218.1" cy="218" r="218"/>
	</g>
	<g class="st1">
		<defs>
			<circle id="SVGID_1_" class="st1" cx="217.2" cy="224.5" r="188.2"/>
		</defs>
		<clipPath id="SVGID_2_">
			<use xlink:href="#SVGID_1_"  style="overflow:visible;"/>
		</clipPath>
		<g transform="matrix(1 0 0 1 0 0)" style="clip-path:url(#SVGID_2_);">
			
				<use xlink:href="#Nouveau_symbole_2"  width="477.3" height="477.5" id="XMLID_2_" x="-238.7" y="-238.8" transform="matrix(0.848 0 0 -0.848 199.1557 225.5518)" style="overflow:visible;"/>
		</g>
	</g>
	<circle class="st2" cx="218.2" cy="217.9" r="185.9"/>
	<circle class="st3" cx="218.2" cy="217.9" r="194.9"/>
</g>
<g>
	<path class="st0" d="M313.5,254.8c0.4,2.9,0.7,5.3,1.1,7.6c0.1,0.6,0.6,1.5,1.1,1.7c5.3,1.8,10.6,3.6,15.9,5
		c3.9,1,7.7,0.2,11.5-1.5c8.4-3.8,16.1-1.1,23.7,2.8c0.4,0.2,0.5,1.1,0.7,1.6c-0.7,0-1.5,0.3-2.2,0.1c-4.4-1.3-8.7-2.9-13.1-3.8
		c-2.1-0.4-4.8,0-6.8,1c-7.3,3.6-14.6,2.8-21.9,0.4c-2.7-0.9-5.4-2-8.4-3.1c0.2,2.4,0.3,4.5,0.6,6.5c0.1,0.6,0.6,1.3,1.1,1.8
		c1.9,1.8,3.9,3.4,5.6,5.3c5.1,5.4,11.3,8.7,18.8,9.3c0.7,0.1,1.4,0.7,2.1,1.1c-0.8,0.3-1.6,1-2.4,1c-8-0.4-14.6-3.8-20-9.6
		c-1.5-1.6-2.8-3.2-4.5-5.2c-0.3,14.2-0.5,27.5-0.8,40.9c-2.2,0-3.7,0-5.5,0c1.2-15.7,1.6-31.2,0.1-46.7c-0.3,0.1-0.6,0.1-0.6,0.2
		c-2.4,6.9-7.2,11.7-13.3,15.4c-8.4,5.1-17.4,8.6-27.2,9.1c-3.4,0.2-7-0.3-10.4-1c-4.5-1-5.1-3.8-1.9-7.2c2.1-2.2,4-4.5,5.7-7
		c2.2-3.4,2.3-7.1-0.5-10.2c-3.2-3.5-6.5-6.9-10-10.1c-3.9-3.6-8.2-6.8-12.2-10.3c-5.6-4.9-9.2-11-10.3-18.4
		c-0.1-0.6-0.6-1.5-1.1-1.7c-2.5-1.2-2.7-3.1-2.3-5.4c0.7-4.1,1.6-8.2,2-12.3c0.7-7-2.5-12.8-6.8-18c-1.9-2.3-3.8-2.1-6,0.3
		c-5.4,6.1-8.5,12.9-6.8,21.3c0.6,2.9,1.2,5.7,1.7,8.6c0.4,2.4,0.3,4.5-2.4,5.6c-0.5,0.2-0.9,1.1-1,1.8c-1.2,7.3-4.7,13.3-10.2,18.2
		c-4.4,3.9-9.2,7.5-13.6,11.5c-3.1,2.8-6.1,5.9-8.9,9.1c-2.6,3-2.7,6.5-0.6,9.8c1.7,2.7,3.9,5.2,6.1,7.6c2.7,2.9,2.3,5.6-1.6,6.8
		c-6.3,2-12.7,1.5-19,0c-8.5-2-16.2-5.6-23.2-10.8c-4.5-3.3-7.6-7.6-9.7-12.9c-1.7,15.6-1.5,31.1-0.1,46.8c-1.7,0-3.3,0-5.6,0
		c-0.3-13.3-0.5-26.5-0.8-40c-1.3,1.3-2.7,2.6-4,4c-5.4,5.9-12,9.5-20.1,10.1c-0.5,0-1,0.2-1.5,0c-0.5-0.2-0.9-0.6-1.3-0.9
		c0.3-0.4,0.6-0.9,1.1-1.2c0.2-0.2,0.6-0.1,1-0.1c7.7-0.5,14-3.9,19.2-9.6c1.3-1.5,2.7-3,4.4-4.1c1.6-1.1,2.4-2.3,2.3-4.3
		c-0.1-1.5,0.2-3,0.4-4.9c-1.3,0.5-2.2,0.9-3.2,1.2c-4.6,1.3-9.2,3.1-13.9,3.8c-3.3,0.5-7.2,0.2-10.2-1.2c-7.3-3.3-14-2.2-20.7,0.9
		c-0.9,0.4-1.8,1-2.7,1.3c-0.5,0.1-1.1-0.3-1.7-0.5c0.2-0.5,0.3-1.2,0.6-1.4c7.2-3.8,14.7-6.7,22.7-3.2c6,2.6,11.8,2.7,17.8,0.8
		c3.6-1.1,7.1-2.5,10.6-3.9c0.6-0.2,1.1-1,1.3-1.6c0.5-2.4,0.8-4.9,1.2-7.8c-1.1,0.1-2.1,0.2-3,0.3c-4.3,0.3-8.6,0.9-13,0.8
		c-7-0.1-11.9-3.4-15-9.8c-1.2-2.6-3-5-4.9-7.1c-1.8-1.9-4.4-2.3-6.3,0.2c-0.3,0.4-1.2,0.4-1.9,0.5c0-0.7-0.1-1.5,0.2-2
		c1.4-2.1,3.5-3.1,5.8-2.3c1.8,0.6,3.6,1.6,4.8,2.9c1.6,1.6,3,3.7,3.8,5.8c2.8,6.7,7.9,9.8,14.9,9.6c4.6-0.1,9.1-0.7,13.7-1.3
		c0.6-0.1,1.4-1.1,1.5-1.8c1.6-9.8,3.3-19.6,4.3-29.5c0.4-4.5-0.2-9.4-1.4-13.8c-4.8-18.9-7.2-38-7.5-57.4
		c-0.1-5.7,0.3-11.6,1.4-17.2c2.2-11.1,10.3-14.9,19.9-9c10.7,6.5,21.1,13.5,31.1,21c7.4,5.6,14,12.4,20.8,18.8
		c3.3,3.1,6.7,5.1,11.5,4.9c9.8-0.3,19.5-0.2,29.3,0c4.5,0.1,8-1.5,10.9-4.6c13.1-14.2,28.5-25.6,44.8-35.9c2.8-1.8,5.7-3.5,8.7-5
		c8.6-4.2,15.6-1.1,18.2,8.1c2.3,8.1,2.1,16.5,1.7,24.9c-0.9,17.9-3.2,35.5-7.8,52.9c-1.5,5.5-1.4,11.1-0.6,16.6
		c1.3,8.3,2.6,16.6,4,25c0.1,0.8,1,1.9,1.6,2c5.4,0.5,10.8,1.1,16.2,1.1c5.6-0.1,9.4-3.3,11.8-8.3c1.1-2.2,2.3-4.5,3.9-6.4
		c1.2-1.4,3.1-2.6,4.9-3.3c2.5-1,5.3,0.2,6.4,2.5c0.2,0.5,0,1.2,0,1.8c-0.5-0.1-1.2,0-1.6-0.2c-3.5-2.6-5.5-2.5-8.2,1
		c-1.3,1.6-2.4,3.5-3.2,5.3c-3,6.7-8.2,10-15.4,10c-4.2,0-8.5-0.5-12.7-0.8C315.6,255,314.7,255,313.5,254.8z M127.6,128.7
		c2.6-1.2,4.8-0.5,6.7,1c1.9,1.4,3.9,2.9,5.6,4.6c8.4,8.6,16.2,17.7,22.7,27.9c3.9,6.2,8.8,11.5,15.3,15.1c0.2,0.1,0.2,0.4,0.3,0.6
		c-1.1,0.3-2.1,0.5-3,0.7c-1,0.2-1.9,0.5-2.9,0.7c-11.3,2.2-19.4,8.6-24.8,18.5c-1.8,3.4-3.5,7-4.9,10.7c-1.4,3.6-3.6,6.5-6.7,8.8
		c-0.8,0.6-1.7,1.5-2,2.4c-1,3.7-1.7,7.6-2.6,11.4c0.9-0.5,1.2-1.1,1.5-1.8c5.6-12.6,12.7-20.5,27.5-19.6c0.2,0,0.3,0,0.5,0
		c7.3,0,13-3,17.5-8.6c2.1-2.6,4.3-5.1,6.4-7.7c2.4-2.9,5.3-4.9,9-6c16.1-5.1,32-4.4,48.1,0.1c3.8,1.1,6.8,3,9.2,6
		c2.1,2.5,4.2,5,6.2,7.5c4.6,5.9,10.5,8.8,18,8.8c2.9,0,5.9,0,8.7,0.8c2.8,0.7,5.8,1.8,8,3.6c5.1,4.2,9.1,9.5,11.2,16
		c0.2,0.6,0.5,1.2,0.8,1.8c0-3.1-0.4-5.9-0.9-8.8c-0.5-2.7-1.8-4.7-4-6.6c-2.3-2.1-4.1-5-5.6-7.8c-2.4-4.4-4.1-9.2-6.6-13.4
		c-4.7-7.9-11.6-13.2-20.8-15.3c-2.8-0.6-5.6-1.4-8.8-2.2c6.9-3.7,11.9-8.8,15.7-14.9c6.5-10.3,14.3-19.5,22.7-28.2
		c1.7-1.8,3.7-3.4,5.7-4.8c2-1.5,4.2-2.4,7-1.1c-2.3-2.6-5.1-3.2-7.8-1.4c-2.6,1.8-5.1,3.8-7.3,6.1c-8.5,8.8-16.3,18.1-22.8,28.5
		c-3.9,6.1-8.9,11.1-15.6,14c-1.4,0.6-3.2,0.8-4.8,0.6c-6.6-0.8-13.2-2.3-19.8-2.7c-14.9-0.9-29.7-0.4-44.4,2.6
		c-1.8,0.4-4,0-5.7-0.8c-6.4-2.9-11.2-7.7-15-13.6c-6.4-10.2-14.1-19.5-22.4-28.1c-2.3-2.4-4.9-4.6-7.6-6.5
		C132.8,125.5,129.9,126.1,127.6,128.7z M152.3,228.5c-1.7,0.2-3.6,0.6-5.5,0.8c-1.5,0.1-1.9,0.9-1.8,2.3c0.3,10.3,8,20.2,18.2,22.9
		c14.9,4,30.9-5.4,34.8-20.4c0.3-1.1,0.4-2.2,0.6-3.5c-5.1-0.4-9.9-0.9-13.7-1.2c-2.7,4.5-4.6,8.9-7.7,12.2
		c-7.2,8.1-17.6,6.3-22.1-3.5C153.8,235.3,153.3,232,152.3,228.5z M252.2,229.4c-4.8,0.4-9.6,0.8-14.4,1.3c0.1,0.7,0.1,1.4,0.2,2
		c3,15.2,18.9,25.5,34,22.1c10.8-2.4,19-12.3,19.2-23.1c0-0.8-0.6-2.1-1.2-2.2c-2-0.5-4.2-0.7-6.4-1c-0.2,1.6-0.2,2.8-0.6,4
		c-1,2.9-1.8,6-3.5,8.5c-4.1,6.4-11.9,7.8-17.9,3c-2.8-2.2-4.9-5.4-6.9-8.4C253.6,233.8,253.1,231.6,252.2,229.4z M165.7,231.9
		c0-2.5-1.9-4.4-4.5-4.4c-3,0-5.6,2.6-5.5,5.6c0.1,2.5,2.1,4.4,4.6,4.3C163.2,237.3,165.7,234.7,165.7,231.9z M262.3,233.6
		c0-2.7-2-5.2-4-5.2c-2,0-2.7,1.4-2.8,3.1c-0.1,2.4,2,5,4,5C261.5,236.4,262.1,235,262.3,233.6z"/>
	<path class="st0" d="M216.9,247.8c-1.9-1.2-3.3-2.1-5.2-3.3c-1.1,0.4-2.7,1.3-4.5,1.6c-1.1,0.2-2.8-0.1-3.5-0.9
		c-0.5-0.6-0.2-2.6,0.5-3.3c1.8-1.8,3.8-4.2,6.2-4.7c4.5-1.1,9.2-1.4,13.8-1.6c3.5-0.1,6,1.9,7.5,5c0.4,0.9,0.5,2.4,0,3.2
		c-0.4,0.6-1.9,0.9-2.9,0.8c-1.6-0.2-3.2-0.8-4.6-0.5c-1.4,0.8-2.8,1.6-4,2.6c-0.5,0.4-0.7,1.3-1.3,2.3c1.7,0,2.7,0,3.7,0
		c4.6,0.1,8.7,1.5,12.1,4.6c5.7,5.2,10,11.4,11.4,19.2c0.2,0.9,0.4,1.9,0.1,2.7c-0.3,0.9-1.2,1.5-1.9,2.2c-0.7-0.7-1.4-1.5-2-2.2
		c-0.2-0.2-0.1-0.6-0.1-1c-0.1-8.5-4.2-15-10.8-19.9c-4.7-3.5-10.1-3.5-15.6-2c-5,1.4-9.4,3.9-13.2,7.4c-5.7,5.2-7.9,11.8-7.5,19.4
		c0,0.6,0.3,1.3,0.1,1.7c-0.4,0.9-1.2,1.6-1.8,2.4c-0.7-0.7-1.9-1.3-2-2.1c-0.3-1.6-0.2-3.3,0-5c2.1-13.8,10.3-22.1,23.2-26.4
		C216.4,249.5,217.5,249.1,216.9,247.8z M230,242.5c-2.2-4.9-6-4.9-9.9-4.7c-7.2,0.4-12.5,1.3-14.2,6.4c1.9-0.7,3.5-1.4,5.2-1.9
		c1.4-0.5,2.7-0.6,3.7,1c1.3,2,5.1,1.6,6.5-0.3c0.7-0.9,2.1-1.5,3.2-1.5C226.3,241.4,227.9,242,230,242.5z"/>
</g>
</svg>
