<?xml version="1.0" encoding="utf-8"?>
<!-- Generator: Adobe Illustrator 16.0.0, SVG Export Plug-In . SVG Version: 6.00 Build 0)  -->
<!DOCTYPE svg PUBLIC "-//W3C//DTD SVG 1.1//EN" "http://www.w3.org/Graphics/SVG/1.1/DTD/svg11.dtd">
<svg version="1.1" id="Layer_1" xmlns="http://www.w3.org/2000/svg" xmlns:xlink="http://www.w3.org/1999/xlink" x="0px" y="0px"
	 width="1488.289px" height="279.4px" viewBox="-672.75 -125.281 1488.289 279.4"
	 enable-background="new -672.75 -125.281 1488.289 279.4" xml:space="preserve">
<g>
	<rect x="-670.75" y="-121.969" fill="#757679" width="122.388" height="18.701"/>
	<rect x="-670.75" y="-78.385" fill="#757679" width="122.388" height="18.721"/>
	<rect x="-670.75" y="-34.782" fill="#757679" width="122.388" height="18.711"/>
	<rect x="-572.219" y="16.146" fill="#757679" width="21.528" height="120.786"/>
	<rect x="-620.408" y="16.146" fill="#757679" width="21.479" height="120.786"/>
	<rect x="-668.162" y="16.146" fill="#757679" width="21.504" height="120.786"/>
</g>
<g>
	<g>
		<g>
			<path fill="#757679" d="M-203.412-44.214h23.613l58.999,71.533l58.686-71.533h23.691V76.362h-27.358V-6.577l-53.891,68.398
				h-5.679l-54.448-66.406v80.947h-23.613V-44.214z"/>
			<path fill="#757679" d="M53.741,27.895l27.046-50.156L109,27.895H53.741z M-3.271,76.362h29.38l15.088-26.504h79.775
				l15.088,26.504h33.057L96.47-44.214H68.267L-3.271,76.362z"/>
			<path fill="#757679" d="M198.863-44.214h29.697V4.497l70.4-48.711h42.363L258.15,11.675l92.617,64.687h-46.455L228.56,21.908
				v54.453h-29.697V-44.214z"/>
			<path fill="#757679" d="M375.424-44.214h29.316V76.362h-29.316V-44.214z"/>
			<path fill="#757679" d="M458.178-44.214h20.234l102.265,80.136v-80.136h26.523V76.362h-20.205L484.907-4.898v81.259h-26.738
				V-44.214H458.178z"/>
			<path fill="#757679" d="M699.662,27.895l27.051-50.156l28.242,50.156H699.662z M642.689,76.362h29.346l15.107-26.504h79.824
				l15.059,26.504h33.086L742.425-44.214h-28.174L642.689,76.362z"/>
		</g>
		<path fill="#757679" d="M-255.243,53.823h-93.54V24.164h88.271c-0.19-2.822-0.508-5.479-0.508-8.379
			c0-4.257,0.317-8.33,0.669-12.412h-88.433v-26.191h93.682c2.842-8.662,6.67-15.898,11.079-21.396h-134.379V76.362h134.99
			C-248.221,70.678-252.259,63.061-255.243,53.823z"/>
	</g>
	<g>
		<g>
			<path fill="#FFFFFF" d="M-205.413-47.523h23.613L-122.8,24.01l58.686-71.533h23.691V73.053h-27.358V-9.886l-53.891,68.398h-5.679
				l-54.448-66.406v80.947h-23.613V-47.523z"/>
			<path fill="#FFFFFF" d="M51.74,24.586L78.786-25.57l28.213,50.156H51.74z M-5.271,73.053h29.38l15.088-26.504h79.775
				l15.088,26.504h33.057L94.469-47.523H66.266L-5.271,73.053z"/>
			<path fill="#FFFFFF" d="M196.862-47.523h29.697V1.188l70.4-48.711h42.363L256.149,8.366l92.617,64.687h-46.455L226.559,18.6
				v54.453h-29.697V-47.523z"/>
			<path fill="#FFFFFF" d="M373.423-47.523h29.316V73.053h-29.316V-47.523z"/>
			<path fill="#FFFFFF" d="M456.177-47.523h20.234l102.265,80.136v-80.136H605.2V73.053h-20.205L482.906-8.206v81.259h-26.738
				V-47.523H456.177z"/>
			<path fill="#FFFFFF" d="M697.661,24.586l27.051-50.156l28.242,50.156H697.661z M640.688,73.053h29.346l15.107-26.504h79.824
				l15.059,26.504h33.086L740.424-47.523H712.25L640.688,73.053z"/>
		</g>
		<path fill="#FFFFFF" d="M-257.243,50.514h-93.54V20.856h88.271c-0.19-2.822-0.508-5.479-0.508-8.378
			c0-4.258,0.317-8.33,0.669-12.412h-88.433v-26.191h93.682c2.842-8.662,6.67-15.898,11.079-21.396h-134.379V73.053h134.99
			C-250.222,67.369-254.26,59.752-257.243,50.514z"/>
	</g>
</g>
<g>
	<rect x="-672.75" y="-125.278" fill="#FFFFFF" width="122.388" height="18.701"/>
	<rect x="-672.75" y="-81.694" fill="#FFFFFF" width="122.388" height="18.721"/>
	<rect x="-672.75" y="-38.091" fill="#FFFFFF" width="122.388" height="18.711"/>
	<rect x="-574.22" y="12.837" fill="#FFFFFF" width="21.528" height="120.786"/>
	<rect x="-622.408" y="12.837" fill="#FFFFFF" width="21.479" height="120.786"/>
	<rect x="-670.162" y="12.837" fill="#FFFFFF" width="21.504" height="120.786"/>
</g>
</svg>
